# xmcd
#
# Track frame offsets:
#	150
#	13011
#	31013
#	44328
#	63002
#	79567
#	96031
#	114992
#	128561
#	142615
#	154018
#	166564
#	184586
#
# Disc length: 2685 seconds
#
# Revision: 1
# Processed by: cddbd v1.5.2PL0 Copyright (c) Steve Scherf et al.
# Submitted via: audiograbber 1.83.01
#
DISCID=830a7b0d
DTITLE=Os Bravos - Nos Fandangos Do Sul
DYEAR=1900
DGENRE=Gaúcha
TTITLE0=Na Lida Dos Pampas
TTITLE1=Nos Fandangos Do Sul
TTITLE2=Gaúcho Taura
TTITLE3=O Gaiteiro Não Dança
TTITLE4=Pra Domar Meu Potro
TTITLE5=Oração à Vacaria
TTITLE6=Campesino
TTITLE7=Não Dança Na Contramão
TTITLE8=Canta Comigo, Canta
TTITLE9=Dançando Co'a Morena
TTITLE10=é O Balanço Que Dá
TTITLE11=De Soledade A Porto Alegre
TTITLE12=Na Fazenda Calábria
EXTD=
EXTT0=
EXTT1=
EXTT2=
EXTT3=
EXTT4=
EXTT5=
EXTT6=
EXTT7=
EXTT8=
EXTT9=
EXTT10=
EXTT11=
EXTT12=
PLAYORDER=
